<?xml version="1.0" standalone="no"?>
<!DOCTYPE svg PUBLIC "-//W3C//DTD SVG 20010904//EN"
 "http://www.w3.org/TR/2001/REC-SVG-20010904/DTD/svg10.dtd">
<svg version="1.0" xmlns="http://www.w3.org/2000/svg"
 width="7730.000000pt" height="7730.000000pt" viewBox="0 0 7730.000000 7730.000000"
 preserveAspectRatio="xMidYMid meet">

<g transform="translate(0.000000,7730.000000) scale(0.100000,-0.100000)"
fill="#000000" stroke="none">
<path d="M17770 48161 c-14 -4 -43 -17 -65 -29 -58 -29 -5449 -5571 -5489
-5642 -23 -41 -30 -69 -34 -126 -6 -89 9 -148 52 -207 17 -24 812 -805 1766
-1737 954 -931 1854 -1811 2000 -1955 954 -942 1640 -1603 1686 -1626 39 -19
65 -24 129 -24 152 0 65 -82 1212 1138 560 595 1060 1127 1113 1182 204 214
282 297 1060 1125 442 470 842 896 890 945 102 106 573 605 614 652 16 18 34
30 40 26 6 -3 8 -2 4 2 -5 5 11 27 35 50 23 23 43 46 44 51 1 5 7 10 15 12 8
2 9 0 3 -5 -5 -4 -11 -16 -12 -26 -1 -18 0 -18 17 0 9 10 16 21 14 25 -3 4 0
9 5 13 6 3 8 -4 5 -17 -8 -33 -7 -8 -5 -418 2 -206 5 -369 8 -362 2 6 9 10 14
6 5 -3 9 -1 9 4 0 6 8 9 17 8 10 0 18 5 18 11 0 7 10 20 23 28 12 9 22 24 22
33 -1 14 -4 13 -19 -5 -14 -17 -21 -19 -31 -10 -10 10 -11 7 -5 -11 7 -23 7
-23 -19 -7 -36 24 -32 34 10 30 29 -2 38 2 41 16 3 10 9 17 13 14 5 -3 11 -1
15 5 3 5 1 10 -6 10 -7 0 -10 3 -6 6 3 3 11 3 17 -1 8 -5 8 -10 0 -20 -6 -7
-7 -16 -2 -19 9 -6 245 239 250 260 2 8 7 14 12 14 4 0 142 143 306 318 164
174 337 358 385 407 207 217 213 227 214 330 0 51 -5 80 -20 107 -11 21 -110
129 -220 240 -572 581 -929 938 -939 938 -7 0 -6 -4 2 -9 11 -7 11 -9 -1 -14
-16 -6 -17 9 -4 31 8 11 2 16 -15 13 -5 0 -8 3 -8 7 0 14 -56 72 -63 65 -4 -3
-7 1 -7 9 0 9 -8 22 -17 29 -17 13 -17 13 -3 -5 14 -18 13 -19 -2 -13 -17 6
-18 -15 -18 -363 0 -240 4 -370 10 -370 6 0 11 129 12 363 1 199 3 340 5 312
1 -27 4 -206 5 -397 2 -190 6 -349 9 -353 4 -3 16 -7 27 -8 12 0 19 -3 17 -5
-7 -7 20 -30 29 -24 5 3 7 1 4 -4 -8 -13 10 -56 20 -50 5 3 9 -2 9 -10 0 -10
-9 -6 -28 12 -16 15 -27 30 -25 33 2 3 -2 12 -10 19 -8 7 -14 10 -14 6 0 -4
-9 1 -20 11 -11 10 -20 24 -20 32 0 9 -5 11 -12 7 -8 -5 -7 0 2 11 14 17 13
18 -3 12 -20 -7 -82 42 -92 74 -4 11 -10 17 -14 15 -12 -8 -63 49 -54 59 5 4
3 5 -3 2 -7 -4 -81 64 -178 165 -91 95 -399 407 -684 693 -535 538 -765 770
-2272 2295 -1531 1549 -1520 1539 -1575 1567 -53 28 -166 40 -215 24z m118
-225 c29 -15 62 -49 1262 -1266 420 -426 960 -973 1200 -1215 240 -242 735
-744 1101 -1115 365 -371 834 -846 1041 -1055 l378 -380 -1 -249 c0 -136 2
-250 5 -253 7 -8 -6 -37 -23 -50 -9 -7 -12 -13 -7 -13 5 0 -16 -24 -46 -54
-31 -30 -58 -62 -62 -71 -3 -9 -11 -13 -16 -10 -6 4 -9 2 -8 -3 2 -5 -138
-159 -311 -343 -173 -184 -371 -395 -441 -469 -122 -130 -1514 -1611 -1649
-1755 -37 -38 -134 -142 -217 -230 -83 -88 -615 -653 -1183 -1257 -666 -708
-1041 -1099 -1059 -1105 -15 -5 -37 -7 -48 -5 -13 2 -354 328 -790 754 -3913
3823 -4605 4502 -4610 4525 -4 13 -3 37 2 53 10 31 5385 5566 5413 5573 30 8
42 7 69 -7z m5006 -3948 c-5 -8 -1 -9 12 -5 18 7 18 6 1 -7 -15 -11 -15 -15
-3 -19 8 -3 17 -2 20 4 2 5 3 4 2 -2 -1 -7 -11 -14 -22 -15 -15 -3 -19 3 -20
26 -1 17 3 30 8 30 5 0 6 -5 2 -12z m216 -932 c0 -2 -8 -10 -17 -17 -16 -13
-17 -12 -4 4 13 16 21 21 21 13z m-186 -212 c7 -19 2 -18 -19 6 -16 17 -16 20
-3 15 9 -4 19 -13 22 -21z m64 -128 c3 -52 -7 -72 -23 -46 -3 6 -1 10 5 10 8
0 8 6 0 20 -7 14 -7 20 0 20 5 0 10 5 10 11 0 5 -3 8 -8 6 -4 -3 -7 8 -7 23
-1 54 20 14 23 -44z m102 -42 c0 -8 -19 -13 -24 -6 -3 5 1 9 9 9 8 0 15 -2 15
-3z m-105 -122 c-13 -8 -13 -42 -1 -61 6 -9 5 -12 -2 -7 -6 3 -13 2 -17 -4 -4
-6 -12 -7 -18 -3 -8 4 -7 1 1 -9 11 -14 10 -18 -7 -27 -26 -14 -31 -14 -31 3
0 8 -7 16 -15 20 -8 3 -15 13 -15 23 0 15 2 16 10 3 8 -12 10 -12 10 -1 0 11
3 11 17 0 14 -12 15 -12 9 -1 -7 11 -4 12 13 3 11 -7 22 -9 22 -6 1 3 3 23 4
45 3 55 4 55 17 42 9 -9 9 -15 3 -20z m-93 -124 c-3 -12 -1 -19 5 -15 5 3 10
0 10 -8 0 -8 -7 -17 -14 -19 -8 -3 -11 -2 -8 3 3 5 1 12 -5 16 -7 4 -7 12 0
26 14 25 19 24 12 -3z m181 -219 c5 -3 2 -9 -5 -12 -9 -3 -14 3 -15 15 -1 11
1 16 5 12 4 -5 11 -12 15 -15z m-85 -84 c-1 -14 -6 -25 -10 -25 -4 0 -6 10 -4
23 6 28 5 27 11 27 3 0 4 -11 3 -25z m-35 -56 c7 0 4 -4 -7 -8 -17 -7 -17 -8
-2 -24 15 -15 16 -17 2 -17 -14 0 -21 18 -17 43 1 5 -3 6 -8 3 -5 -4 -8 -15
-6 -26 4 -22 -20 -28 -28 -7 -6 17 24 49 41 42 7 -3 19 -5 25 -6z m-28 -829
c3 -6 1 -10 -4 -10 -6 0 -11 5 -11 10 0 6 -5 10 -11 10 -5 0 -7 -6 -3 -12 4
-7 3 -9 -1 -5 -5 4 -10 14 -11 22 -2 11 2 12 16 5 11 -6 22 -15 25 -20z"/>
<path d="M17843 46836 c-49 -41 -1577 -1994 -1591 -2032 -11 -32 -10 -42 5
-73 36 -72 13 -70 696 -57 l607 11 0 -601 0 -600 -689 -677 c-628 -617 -693
-683 -722 -742 -37 -76 -49 -173 -29 -254 16 -69 80 -162 135 -199 24 -16 247
-106 497 -200 249 -94 716 -271 1038 -392 322 -122 600 -227 618 -233 17 -6
32 -14 32 -18 0 -4 -211 -186 -470 -404 -258 -218 -491 -421 -519 -450 -27
-30 -61 -78 -75 -107 l-26 -52 0 -574 0 -575 163 6 c89 4 259 9 377 13 118 3
225 7 238 10 l22 4 1 458 0 457 576 495 c696 599 726 626 763 701 87 172 29
387 -127 471 -26 14 -239 98 -473 186 -663 250 -1724 653 -1727 656 -2 2 243
242 544 534 302 292 565 553 585 580 72 94 68 46 68 820 l0 700 253 6 c138 3
389 9 557 12 234 5 311 10 333 21 37 19 61 71 53 114 -4 25 -212 291 -787
1009 -430 536 -791 980 -803 987 -36 21 -91 16 -123 -11z"/>
<path d="M22838 42648 c-3 -228 -5 -263 -18 -260 -8 2 -12 0 -7 -4 4 -4 18 -9
30 -11 17 -2 19 -1 7 7 -9 6 -10 10 -3 10 15 0 19 505 3 515 -6 4 -11 -83 -12
-257z"/>
<path d="M55605 45314 c-241 -45 -481 -147 -685 -291 -135 -96 -330 -294 -413
-418 -156 -236 -234 -472 -258 -779 -17 -217 12 -501 77 -761 44 -174 161
-503 221 -619 l19 -37 69 37 c231 122 427 288 602 511 l64 82 -2 86 c-3 121
-6 135 -36 135 -42 0 -146 30 -188 55 -91 52 -144 175 -152 350 -17 354 148
774 334 852 88 36 252 23 369 -31 102 -47 211 -196 249 -342 19 -74 19 -216 0
-280 -8 -27 -15 -51 -15 -54 0 -3 33 -5 74 -5 65 0 78 -3 100 -24 31 -29 33
-59 7 -109 -34 -66 -145 -152 -196 -152 -29 0 -27 -29 14 -180 72 -261 160
-476 255 -619 93 -140 159 -186 693 -484 236 -132 274 -150 395 -186 461 -138
876 -304 1298 -517 1473 -744 2651 -1683 3460 -2759 421 -560 761 -1193 973
-1815 456 -1333 514 -2322 171 -2936 -65 -115 -128 -196 -237 -301 -143 -139
-293 -229 -499 -301 -338 -119 -815 -134 -1338 -41 -681 121 -1549 448 -2175
819 -150 89 -395 250 -510 334 -98 73 -95 72 -90 39 53 -316 100 -512 175
-735 231 -684 628 -1271 1321 -1953 442 -435 852 -790 1374 -1190 295 -226
422 -334 549 -466 257 -268 431 -637 490 -1039 9 -58 20 -211 26 -340 6 -129
17 -278 25 -330 24 -161 85 -315 174 -438 31 -42 32 -42 60 -28 64 34 242 175
340 270 222 216 363 442 451 722 17 55 53 208 80 342 72 350 101 423 210 532
116 116 263 169 436 157 148 -11 265 -47 634 -199 521 -215 761 -280 1085
-295 608 -27 1291 265 1818 776 448 436 711 935 759 1443 26 279 -35 568 -187
886 -153 319 -375 646 -868 1281 -686 882 -941 1170 -1407 1586 -309 276 -398
374 -558 618 -284 431 -442 872 -504 1412 -7 65 -12 225 -12 390 1 308 13 467
70 915 91 710 103 825 111 1105 18 623 -109 1111 -406 1556 -127 190 -202 282
-385 465 -315 316 -685 574 -1131 790 -312 151 -630 265 -955 343 -338 82
-590 112 -925 112 -250 0 -399 -12 -820 -66 -556 -71 -827 -66 -1165 20 -395
101 -815 321 -1283 673 -397 298 -690 555 -1077 942 -361 362 -427 409 -660
472 -101 27 -378 34 -495 12z"/>
<path d="M22840 41580 c0 -233 4 -360 10 -360 6 0 10 127 10 360 0 233 -4 360
-10 360 -6 0 -10 -127 -10 -360z"/>
<path d="M22845 41200 c-4 -6 -1 -18 7 -27 11 -14 11 -16 -4 -10 -12 4 -15 2
-11 -9 5 -13 8 -13 24 2 22 20 24 25 7 22 -7 -2 -12 5 -10 15 3 19 -3 23 -13
7z"/>
<path d="M22805 41171 c-3 -5 -2 -12 3 -15 5 -3 9 1 9 9 0 17 -3 19 -12 6z"/>
<path d="M22763 41114 c4 -4 1 -14 -6 -23 -11 -14 -10 -15 8 -1 11 8 21 15 23
16 2 1 -5 5 -15 8 -9 4 -14 4 -10 0z"/>
<path d="M48671 40769 c-166 -28 -311 -188 -327 -360 -6 -56 7 -132 95 -574
56 -281 104 -516 106 -523 3 -8 32 16 71 58 167 176 365 274 559 274 100 1
135 -12 178 -63 39 -46 50 -94 44 -180 -11 -152 -104 -372 -297 -696 -109
-184 -203 -378 -236 -490 -20 -66 -28 -120 -31 -205 l-5 -115 261 -1300 c187
-930 268 -1314 286 -1352 31 -70 111 -153 179 -187 43 -22 355 -92 1517 -342
3720 -801 6004 -1290 6052 -1297 146 -22 334 85 402 229 51 108 51 101 -15
939 -104 1319 -188 2396 -194 2495 -4 52 -9 115 -11 140 -3 25 -14 160 -25
300 -117 1533 -110 1474 -178 1573 -83 120 -129 140 -570 247 -2647 641 -5139
1138 -6637 1324 -427 53 -756 88 -960 101 -49 3 -117 7 -150 9 -33 2 -84 0
-114 -5z"/>
<path d="M58631 37352 c-34 -66 -157 -432 -211 -632 l-38 -135 37 -19 c20 -11
140 -66 266 -123 782 -355 1245 -524 1331 -484 62 28 22 76 -331 394 -283 256
-777 725 -792 752 -5 7 -63 70 -131 138 -100 103 -124 122 -131 109z"/>
<path d="M23565 35119 c-509 -388 -1035 -891 -1444 -1378 -926 -1105 -1595
-2433 -1955 -3881 -81 -327 -81 -327 -59 -334 139 -42 1161 -300 1569 -396
542 -128 1421 -316 1431 -306 3 2 -5 19 -17 35 -12 17 -19 31 -16 31 3 0 -3 9
-14 20 -24 24 -28 49 -5 30 9 -7 18 -10 21 -7 3 3 -6 13 -20 22 -14 10 -26 24
-26 31 0 8 -7 17 -15 20 -8 4 -15 11 -15 16 0 6 7 7 16 4 11 -4 18 1 21 14 3
11 14 20 24 20 27 0 59 31 59 57 0 16 6 23 20 23 11 0 20 7 20 15 0 9 11 20
24 24 13 5 26 18 30 27 6 16 8 16 16 4 6 -10 5 -17 -5 -22 -20 -12 -6 -48 18
-48 11 0 18 -3 14 -6 -10 -10 81 -196 138 -280 65 -96 202 -231 302 -297 223
-148 547 -251 918 -291 331 -36 1101 -61 1630 -52 348 6 724 20 801 30 30 4
46 -11 340 -326 170 -182 328 -344 352 -360 69 -48 259 -135 357 -164 121 -35
267 -38 338 -6 74 33 106 60 147 123 52 80 81 194 87 339 5 115 5 115 -47 295
-194 682 -474 1372 -730 1800 -73 122 -82 143 -140 335 -538 1787 -1124 3233
-1626 4012 -230 357 -488 629 -693 733 -128 64 -221 80 -781 130 -30 3 -77 7
-105 10 -27 2 -95 7 -150 10 -55 4 -122 8 -150 10 -27 2 -126 6 -220 9 -93 4
-208 9 -255 11 l-85 5 -120 -91z m-358 -5802 c0 -7 -9 -14 -19 -14 -18 -2 -24
8 -11 20 11 12 30 8 30 -6z m-50 -42 c-4 -8 -14 -15 -23 -15 -16 0 -16 2 2 19
21 21 29 19 21 -4z m60 -17 c-3 -8 -6 -5 -6 6 -1 11 2 17 5 13 3 -3 4 -12 1
-19z m-97 -17 c0 -12 -20 -25 -27 -18 -7 7 6 27 18 27 5 0 9 -4 9 -9z m-43
-46 c-4 -8 -14 -15 -23 -15 -16 0 -16 2 2 19 21 21 29 19 21 -4z m-40 -45 c-2
-11 -7 -23 -12 -27 -4 -5 -5 -3 -2 4 4 6 2 13 -5 15 -6 2 -8 10 -4 16 11 19
26 14 23 -8z m213 10 c0 -5 -4 -10 -10 -10 -5 0 -10 5 -10 10 0 6 5 10 10 10
6 0 10 -4 10 -10z m-235 -48 c3 -9 -1 -12 -14 -7 -16 5 -18 2 -14 -14 4 -16 9
-19 23 -11 24 13 30 13 30 -1 0 -5 -4 -8 -9 -4 -5 3 -16 -2 -25 -10 -13 -13
-15 -13 -21 4 -15 48 -14 60 5 58 11 -1 22 -7 25 -15z m12 -67 c0 -8 -4 -12
-9 -9 -5 3 -6 10 -3 15 9 13 12 11 12 -6z"/>
<path d="M22275 35159 c-295 -27 -575 -58 -760 -83 -639 -88 -1305 -229 -1930
-409 -1737 -501 -3321 -1344 -4720 -2512 -199 -166 -327 -280 -558 -493 -161
-150 -167 -156 -145 -168 40 -21 480 -191 863 -334 1272 -475 2682 -943 4060
-1346 121 -35 227 -67 236 -69 13 -4 19 7 29 57 45 233 187 748 290 1058 171
511 335 907 581 1400 357 714 757 1327 1263 1934 202 243 338 390 633 684 217
216 288 292 271 291 -13 -1 -63 -5 -113 -10z"/>
<path d="M26899 35068 c175 -458 792 -1990 1103 -2738 608 -1462 912 -2103
1088 -2294 49 -53 155 -127 270 -189 340 -183 923 -341 1558 -421 l203 -26
10365 0 c6503 0 10364 4 10362 9 -6 17 -631 492 -1133 861 -159 117 -312 229
-340 250 -222 164 -973 699 -1405 999 -866 601 -2034 1372 -2930 1933 -926
580 -1908 1164 -2612 1552 l-156 86 -8191 0 -8191 0 9 -22z"/>
<path d="M11677 29962 c-647 -938 -1142 -2065 -1442 -3287 -292 -1189 -412
-2539 -344 -3878 l9 -188 -44 -87 c-59 -117 -70 -176 -70 -362 0 -219 39 -390
131 -575 87 -173 102 -191 518 -644 l220 -239 91 -1 91 -1 7 108 c44 678 208
1338 457 1834 220 439 512 763 824 913 160 78 286 107 455 106 316 -2 605
-143 891 -437 485 -499 834 -1375 949 -2383 59 -513 51 -1093 -21 -1596 -132
-929 -491 -1716 -959 -2107 -193 -162 -382 -249 -615 -284 -48 -7 -45 -8 65
-20 393 -44 947 -74 1354 -74 546 0 890 34 1256 124 194 48 248 71 265 109 30
65 398 1015 455 1172 10 28 39 104 65 170 25 66 57 152 70 190 13 39 58 160
100 270 42 110 94 245 115 300 21 55 68 179 105 275 73 191 134 351 248 650
60 156 785 2053 818 2137 7 19 -1 29 -61 77 -353 285 -752 541 -1542 987 -855
482 -1091 629 -1413 878 -298 230 -589 522 -784 786 -380 514 -602 1128 -691
1913 -40 355 -52 749 -38 1282 14 533 3 705 -62 960 -45 176 -138 376 -242
519 -134 184 -371 352 -618 439 -140 49 -242 69 -482 97 l-36 4 -95 -137z"/>
<path d="M19385 29382 c-22 -11 -68 -50 -103 -87 -235 -257 -428 -1041 -516
-2105 -19 -226 -26 -317 -31 -415 -3 -60 -8 -137 -10 -170 -21 -277 -58 -1999
-42 -1985 3 3 76 190 163 415 l157 410 3 125 c18 667 33 1014 59 1380 81 1107
262 1932 472 2148 83 86 94 166 31 238 -37 42 -51 50 -103 58 -28 4 -52 1 -80
-12z"/>
<path d="M23201 29110 c0 -8 4 -22 9 -30 12 -18 12 -2 0 25 -6 13 -9 15 -9 5z"/>
<path d="M23120 29044 c0 -8 5 -12 10 -9 6 3 10 10 10 16 0 5 -4 9 -10 9 -5 0
-10 -7 -10 -16z"/>
<path d="M23105 28970 c-3 -5 -13 -7 -23 -4 -16 5 -16 5 0 -6 11 -6 15 -17 11
-28 -3 -9 -3 -14 1 -10 4 3 8 12 10 20 1 7 5 19 9 26 5 6 6 12 3 12 -3 0 -7
-4 -11 -10z"/>
<path d="M23096 28902 c-2 -4 -1 -14 4 -22 7 -11 9 -9 7 8 -1 24 -3 26 -11 14z"/>
<path d="M59315 25500 c-71 -5 -213 -18 -315 -30 -175 -19 -331 -43 -1175
-174 -192 -29 -462 -69 -600 -87 -137 -17 -251 -33 -253 -35 -5 -3 178 -719
263 -1030 241 -878 493 -1641 748 -2269 93 -228 180 -424 362 -810 389 -827
600 -1347 845 -2085 134 -401 309 -999 354 -1206 l7 -32 -173 -6 c-95 -3 -522
-8 -948 -11 -426 -3 -984 -8 -1240 -11 l-465 -6 -48 153 c-73 231 -143 407
-317 799 -87 195 -179 409 -205 475 -133 335 -234 716 -290 1085 -15 98 -44
363 -45 403 0 15 14 17 148 17 147 0 242 15 258 41 4 8 1 8 -14 0 -17 -9 -20
-7 -26 27 -10 63 -7 672 4 672 5 0 7 7 3 16 -3 9 0 20 8 25 9 6 -56 8 -169 7
l-182 -3 0 32 c0 52 60 515 72 556 8 25 17 37 30 37 10 0 18 -4 18 -10 0 -5
-7 -7 -15 -4 -8 4 -15 1 -15 -5 0 -6 14 -11 31 -11 30 0 31 1 25 38 -4 20 -7
45 -8 55 -1 9 -10 17 -20 17 -11 0 -18 -7 -18 -17 0 -15 2 -16 10 -3 8 12 10
11 10 -7 0 -12 6 -24 13 -26 8 -4 9 -6 0 -6 -24 -2 -43 30 -41 70 1 21 5 39 9
39 5 0 6 7 3 15 -3 8 4 26 15 41 12 15 21 22 21 17 0 -6 -7 -16 -15 -23 -16
-13 -21 -45 -6 -36 5 4 7 -7 5 -22 -3 -20 0 -29 9 -29 10 0 13 25 13 113 0 94
-2 111 -15 106 -10 -4 -12 -2 -6 9 5 8 8 27 6 43 -2 18 1 26 8 22 7 -5 11 12
11 53 0 59 21 108 42 95 7 -5 6 5 -8 44 -8 20 -14 73 -7 54 4 -10 9 -8 19 5
11 14 15 15 22 5 6 -8 9 -1 10 23 1 21 -4 36 -11 37 -7 1 49 5 123 8 l135 6
-148 2 c-147 2 -147 2 -142 25 38 160 327 2298 312 2313 -3 3 -99 -1 -214 -10
-568 -43 -1093 -59 -1903 -60 -660 -1 -803 4 -1080 40 -144 18 -300 48 -410
79 -46 13 -86 23 -87 21 -5 -5 17 -636 32 -901 26 -454 68 -938 115 -1332 11
-89 20 -164 20 -167 0 -3 -1466 -7 -3257 -8 -3093 -3 -3260 -4 -3290 -21 -151
-82 -22 -341 278 -562 72 -53 217 -128 289 -150 51 -15 284 -16 3072 -15 2897
1 3017 0 3022 -17 3 -10 12 -61 21 -113 16 -96 71 -396 80 -437 l5 -23 -2832
0 c-2790 0 -2833 0 -2865 -20 -23 -13 -34 -29 -39 -55 -20 -107 66 -255 248
-430 117 -113 221 -188 335 -243 l78 -37 2621 -3 2622 -2 22 -98 c55 -244 181
-768 320 -1332 83 -338 194 -793 245 -1010 52 -217 101 -422 109 -455 8 -33
14 -60 13 -61 -1 -1 -917 -10 -2034 -20 -1118 -10 -2033 -22 -2033 -26 0 -11
319 -10 1965 7 781 8 1576 15 1766 15 l346 0 6 -32 c3 -18 24 -114 47 -213 53
-232 140 -617 140 -622 0 -1 -2556 -3 -5681 -3 -4313 0 -5703 -3 -5776 -12
-74 -9 -98 -9 -101 0 -3 9 -286 11 -1165 10 -1073 -2 -1120 -3 -617 -10 300
-5 840 -12 1200 -16 l655 -8 -670 2 c-368 1 -906 4 -1195 6 -289 2 -346 3
-127 1 253 -2 397 -7 397 -13 0 -6 -34 -10 -80 -10 -47 0 -80 -4 -80 -10 0 -5
-18 -10 -40 -10 -29 0 -40 -4 -40 -15 0 -12 -16 -15 -80 -15 -60 0 -80 -3 -80
-13 0 -15 -160 -37 -262 -37 -43 0 -58 -4 -58 -14 0 -10 -22 -16 -80 -21 -44
-4 -80 -11 -80 -16 0 -5 -36 -9 -80 -9 -47 0 -80 -4 -80 -10 0 -5 -18 -10 -40
-10 -29 0 -40 -4 -40 -15 0 -12 -16 -15 -80 -15 -64 0 -80 -3 -80 -15 0 -12
-16 -15 -80 -15 -47 0 -80 -4 -80 -10 0 -6 -33 -10 -80 -10 -64 0 -80 -3 -80
-15 0 -12 -16 -15 -80 -15 -64 0 -80 -3 -80 -15 0 -12 -16 -15 -80 -15 -47 0
-80 -4 -80 -10 0 -5 -18 -10 -40 -10 -29 0 -40 -4 -40 -15 0 -12 -16 -15 -80
-15 -64 0 -80 -3 -80 -15 0 -12 -20 -15 -120 -15 -73 0 -120 -4 -120 -10 0 -5
-18 -10 -40 -10 -29 0 -40 -4 -40 -15 0 -12 -16 -15 -80 -15 -60 0 -80 -3 -80
-14 0 -9 -32 -17 -120 -26 -88 -9 -120 -17 -120 -26 0 -11 -20 -14 -80 -14
-64 0 -80 -3 -80 -15 0 -12 -20 -15 -120 -15 -73 0 -120 -4 -120 -10 0 -5 -18
-10 -40 -10 -29 0 -40 -4 -40 -15 0 -12 -16 -15 -80 -15 -60 0 -80 -3 -80 -14
0 -9 -32 -17 -120 -26 -66 -7 -120 -16 -120 -20 0 -4 -54 -13 -120 -20 -66 -7
-120 -17 -120 -21 0 -5 -36 -9 -80 -9 -47 0 -80 -4 -80 -10 0 -5 -18 -10 -40
-10 -29 0 -40 -4 -40 -15 0 -12 -16 -15 -80 -15 -64 0 -80 -3 -80 -15 0 -12
-20 -15 -120 -15 -73 0 -120 -4 -120 -10 0 -5 -18 -10 -40 -10 -29 0 -40 -4
-40 -15 0 -12 -16 -15 -80 -15 -60 0 -80 -3 -80 -14 0 -9 -32 -17 -120 -26
-88 -9 -120 -17 -120 -26 0 -11 -20 -14 -80 -14 -64 0 -80 -3 -80 -15 0 -12
-20 -15 -120 -15 -73 0 -120 -4 -120 -10 0 -5 -18 -10 -40 -10 -29 0 -40 -4
-40 -15 0 -12 -16 -15 -80 -15 -60 0 -80 -3 -80 -14 0 -9 -31 -16 -117 -25
-224 -21 -219 -22 -214 29 1 11 0 12 -6 3 -11 -15 -4 -93 8 -93 5 0 9 -7 9
-16 0 -14 -2 -13 -17 2 -16 15 -18 14 -29 -19 -7 -20 -15 -58 -18 -84 -3 -33
-3 -38 2 -18 l8 30 5 -32 c4 -26 2 -33 -11 -33 -34 0 -34 -256 0 -344 6 -16 8
-31 5 -34 -3 -3 -5 0 -5 6 0 14 -9 16 -1105 217 -550 101 -777 144 -780 147
-2 2 7 42 21 88 73 247 139 570 174 850 27 221 28 231 35 340 4 52 8 115 10
140 9 93 5 670 -4 805 -65 889 -289 1670 -669 2333 -186 324 -350 541 -597
788 -247 247 -453 399 -700 519 -312 151 -592 217 -915 216 -480 -1 -912 -169
-1330 -516 -114 -95 -344 -336 -448 -470 -412 -531 -736 -1222 -966 -2063 -30
-108 -68 -263 -87 -344 -18 -82 -36 -148 -40 -148 -4 0 -6 27 -4 61 5 74 -10
170 -27 181 -10 6 -10 8 1 8 9 0 11 7 7 23 -4 12 -9 33 -11 47 -10 59 -32 115
-45 112 -11 -3 -11 0 0 13 12 14 11 18 -1 26 -8 5 -11 9 -7 9 11 0 -13 60 -24
60 -5 0 -6 4 -3 10 3 5 -4 29 -16 52 -34 67 -120 198 -130 198 -5 0 -9 6 -9
13 0 18 -144 170 -153 161 -4 -4 -1 -14 6 -23 11 -14 10 -14 -5 -2 -14 11 -18
11 -18 1 0 -8 -3 -11 -6 -8 -3 4 -1 15 5 26 8 16 6 23 -11 38 -14 13 -19 14
-13 4 4 -8 -9 4 -29 28 -21 23 -41 42 -46 42 -5 0 -21 11 -36 25 -15 14 -32
25 -39 25 -7 0 -18 7 -25 15 -7 8 -16 12 -21 9 -15 -9 -10 -22 9 -20 10 0 16
-6 16 -16 -2 -21 7 -23 25 -5 11 10 12 9 6 -2 -6 -10 -4 -12 5 -6 9 5 11 4 6
-4 -4 -6 -12 -8 -18 -5 -7 4 -8 2 -4 -4 5 -8 2 -10 -8 -6 -9 3 -16 2 -16 -3 0
-5 18 -9 40 -8 30 1 48 -5 68 -22 15 -12 27 -27 27 -32 0 -5 4 -13 8 -18 9 -8
13 -9 45 -12 10 -1 13 -4 7 -9 -17 -12 -16 -34 2 -56 16 -19 16 -19 1 -7 -11
8 -18 9 -18 3 0 -14 -556 -572 -569 -572 -6 0 -11 -7 -11 -15 0 -8 -9 -19 -20
-25 -11 -6 -20 -17 -20 -25 0 -8 -5 -15 -10 -15 -16 0 -730 -719 -730 -734 0
-8 -9 -16 -21 -19 -11 -3 -23 -15 -26 -26 -3 -12 -12 -21 -19 -21 -8 0 -14 -6
-14 -14 0 -7 -9 -16 -21 -19 -11 -3 -23 -15 -26 -26 -3 -12 -12 -21 -19 -21
-8 0 -14 -6 -14 -14 0 -7 -9 -16 -21 -19 -11 -3 -23 -15 -26 -26 -3 -12 -12
-21 -19 -21 -8 0 -14 -6 -14 -14 0 -7 -9 -16 -21 -19 -11 -3 -23 -15 -26 -26
-3 -12 -12 -21 -19 -21 -8 0 -14 -6 -14 -14 0 -7 -9 -16 -21 -19 -11 -3 -23
-15 -26 -26 -3 -12 -12 -21 -19 -21 -8 0 -14 -6 -14 -14 0 -7 -9 -16 -21 -19
-11 -3 -23 -15 -26 -26 -3 -12 -12 -21 -19 -21 -8 0 -14 -6 -14 -13 0 -7 -10
-17 -22 -22 -15 -6 -23 -18 -22 -32 0 -13 -1 -21 -4 -19 -2 3 -22 -2 -44 -10
-50 -17 -84 -18 -43 0 29 12 29 13 -27 15 -36 1 -58 -3 -58 -9 0 -6 -5 -8 -11
-5 -5 4 -45 9 -87 12 -72 4 -98 15 -85 36 3 5 -5 3 -18 -4 -13 -7 -25 -12 -26
-11 -9 6 -23 0 -18 -7 3 -5 31 -13 63 -17 31 -3 66 -9 77 -11 11 -3 36 -6 55
-6 19 -1 38 -5 41 -9 3 -5 23 -10 45 -13 21 -2 39 -4 39 -5 0 -1 14 -3 30 -5
24 -4 26 -3 10 5 -19 8 -19 9 1 9 12 1 25 -6 28 -15 5 -13 15 -15 44 -11 25 5
32 3 22 -3 -11 -7 -6 -10 20 -12 19 -1 48 -1 63 0 17 1 26 -2 22 -8 -3 -5 1
-10 9 -10 8 0 18 5 21 10 3 5 12 10 18 10 8 0 8 -3 -2 -9 -21 -14 5 -23 42
-15 17 3 35 12 39 18 5 8 8 7 8 -2 0 -7 5 -10 12 -6 7 4 8 3 4 -4 -4 -7 -19
-12 -33 -12 -37 0 -25 -7 22 -13 22 -3 98 -17 168 -31 134 -27 147 -27 159
-11 4 6 8 2 8 -9 0 -13 5 -17 20 -13 11 3 22 1 25 -3 3 -5 13 -9 23 -8 20 0
67 -8 98 -17 28 -9 41 22 18 40 -15 10 -14 12 7 10 21 -2 24 -6 21 -34 -3 -27
-1 -31 19 -28 12 2 38 -2 57 -9 20 -6 48 -10 64 -7 17 2 28 0 28 -7 0 -7 8 -9
20 -5 39 12 76 16 60 6 -8 -5 -19 -7 -25 -4 -5 4 -6 2 -2 -2 8 -9 18 -12 52
-17 14 -2 19 2 17 15 -2 10 3 17 12 17 9 0 21 9 28 20 7 11 19 20 26 20 7 0
15 7 19 16 8 21 51 64 64 64 6 0 15 13 20 29 6 16 17 32 25 35 8 3 14 17 14
31 0 18 5 25 19 25 10 0 21 9 24 20 3 11 12 20 21 20 9 0 16 8 16 20 0 13 7
20 19 20 10 0 21 9 24 20 3 11 12 20 21 20 9 0 16 8 16 20 0 13 7 20 19 20 10
0 21 9 24 20 3 11 12 20 21 20 9 0 16 8 16 20 0 13 7 20 19 20 10 0 21 9 24
20 3 11 12 20 21 20 9 0 16 8 16 20 0 13 7 20 19 20 10 0 21 9 24 20 3 11 12
20 21 20 9 0 16 8 16 20 0 13 7 20 19 20 10 0 21 9 24 20 3 11 12 20 21 20 9
0 16 8 16 20 0 13 7 20 19 20 10 0 21 9 24 20 3 11 12 20 21 20 9 0 16 8 16
20 0 13 7 20 19 20 10 0 21 9 24 20 3 11 12 20 21 20 9 0 16 8 16 20 0 13 7
20 19 20 10 0 21 9 24 20 3 11 12 20 21 20 9 0 16 8 16 20 0 13 7 20 19 20 10
0 21 9 24 20 3 11 12 20 21 20 9 0 16 8 16 20 0 13 7 20 19 20 10 0 21 9 24
20 3 11 12 20 21 20 9 0 16 8 16 20 0 13 7 20 19 20 10 0 21 9 24 20 3 11 12
20 21 20 9 0 16 7 16 16 0 8 7 22 16 31 8 9 13 23 10 32 -5 13 -4 13 7 -1 8
-10 17 -15 21 -11 4 4 6 -114 6 -262 -1 -149 1 -277 4 -285 3 -8 5 -93 3 -188
-1 -94 1 -173 5 -175 6 -2 18 -115 22 -199 0 -21 5 -38 10 -38 4 0 6 -13 4
-30 -2 -16 -1 -31 3 -32 4 -2 10 -23 12 -48 3 -25 13 -93 23 -151 l17 -106
196 -36 c107 -20 196 -35 198 -33 2 2 -3 45 -11 97 -84 526 -99 1200 -40 1759
130 1242 601 2285 1251 2774 175 131 349 217 543 269 107 28 128 30 300 31
160 1 199 -2 290 -22 314 -70 609 -248 881 -529 134 -140 219 -245 334 -418
415 -622 693 -1455 794 -2377 60 -545 53 -1148 -20 -1673 -173 -1257 -690
-2260 -1383 -2680 -154 -94 -350 -166 -511 -187 -169 -22 -151 -25 400 -68
1043 -81 1950 -70 2533 31 152 26 420 91 512 124 468 168 904 653 1185 1320
21 50 40 92 41 94 2 2 41 -12 86 -32 388 -166 1136 -264 2443 -319 391 -17
2423 -17 2948 0 280 9 1822 12 5916 12 l5537 0 87 -128 c169 -250 399 -507
589 -661 255 -205 549 -347 831 -402 63 -12 184 -24 317 -30 118 -5 286 -14
373 -19 88 -5 255 -13 373 -16 183 -6 214 -9 218 -23 11 -35 196 -1144 262
-1568 l18 -112 75 -34 c174 -79 294 -109 466 -114 116 -4 158 -1 242 16 116
24 227 64 328 119 l70 38 63 200 c130 408 270 922 357 1309 20 88 38 168 41
177 3 12 20 18 57 22 29 3 135 15 237 26 386 42 674 96 993 185 285 79 432
144 629 276 223 150 473 399 660 656 l60 83 604 0 603 0 57 -107 c188 -357
398 -720 602 -1043 214 -338 577 -862 778 -1124 68 -88 70 -90 154 -122 238
-91 470 -26 605 170 l38 55 -7 78 c-21 242 -198 1777 -235 2033 -5 36 -6 68
-2 71 3 4 56 16 116 28 666 132 1230 654 1460 1353 69 212 114 505 115 751 l0
57 -1000 0 -999 0 -6 33 c-3 17 -26 160 -50 317 -25 157 -57 354 -71 438 -14
85 -24 155 -22 157 5 6 668 15 1153 15 401 1 458 3 441 16 -20 14 -152 14
-1257 -1 l-346 -5 -17 103 c-89 543 -317 1810 -455 2527 -241 1248 -444 2200
-652 3050 -38 157 -72 299 -75 315 -26 154 -416 1581 -437 1602 -31 32 -368
110 -567 133 -135 15 -432 20 -585 10z m-3265 -2750 c0 -5 -2 -10 -4 -10 -3 0
-8 5 -11 10 -3 6 -1 10 4 10 6 0 11 -4 11 -10z m17 -32 c-3 -8 -6 -5 -6 6 -1
11 2 17 5 13 3 -3 4 -12 1 -19z m-26 -11 c-10 -9 -11 -8 -5 6 3 10 9 15 12 12
3 -3 0 -11 -7 -18z m-16 -86 c3 -5 2 -12 -3 -15 -5 -3 -9 1 -9 9 0 17 3 19 12
6z m-40 -341 c-5 -8 -11 -8 -17 -2 -6 6 -7 16 -3 22 5 8 11 8 17 2 6 -6 7 -16
3 -22z m-25 -216 c0 -2 -7 -4 -15 -4 -8 0 -15 4 -15 10 0 5 7 7 15 4 8 -4 15
-8 15 -10z m-83 -666 c-3 -8 -6 -5 -6 6 -1 11 2 17 5 13 3 -3 4 -12 1 -19z
m40 -10 c-3 -7 -5 -2 -5 12 0 14 2 19 5 13 2 -7 2 -19 0 -25z m-90 -325 c-3
-10 -5 -4 -5 12 0 17 2 24 5 18 2 -7 2 -21 0 -30z m4 -140 c-9 -15 -10 -14 -7
7 6 35 7 37 12 23 3 -7 1 -20 -5 -30z m-4 -145 c-3 -7 -5 -2 -5 12 0 14 2 19
5 13 2 -7 2 -19 0 -25z m13 -116 c0 -15 -2 -15 -10 -2 -13 20 -13 33 0 25 6
-3 10 -14 10 -23z m-28910 -1576 c0 -3 -4 -8 -10 -11 -5 -3 -10 -1 -10 4 0 6
5 11 10 11 6 0 10 -2 10 -4z m542 -1049 c2 -23 -1 -34 -10 -34 -7 0 -10 7 -7
14 3 8 5 23 5 34 0 31 7 22 12 -14z m-25 1 c-3 -8 -6 -5 -6 6 -1 11 2 17 5 13
3 -3 4 -12 1 -19z m32113 -321 c0 -2 20 -90 45 -197 55 -230 155 -696 155
-716 0 -12 -200 -14 -1418 -14 l-1418 0 -18 113 c-26 170 -81 433 -129 620
l-44 167 101 1 c56 1 623 7 1261 13 638 7 1229 14 1313 14 83 1 152 1 152 -1z
m-34397 -764 c-7 -2 -21 -2 -30 0 -10 3 -4 5 12 5 17 0 24 -2 18 -5z m428 -72
c-9 -6 -10 -11 -2 -15 6 -4 11 -12 11 -18 0 -6 -8 -3 -19 8 -18 18 -11 34 14
34 6 0 4 -4 -4 -9z m-78 -18 c-7 -2 -19 -2 -25 0 -7 3 -2 5 12 5 14 0 19 -2
13 -5z m54 -9 c-3 -3 -12 -4 -19 -1 -8 3 -5 6 6 6 11 1 17 -2 13 -5z m348 -43
c-3 -5 3 -12 12 -14 14 -4 13 -5 -4 -6 -23 -1 -30 9 -16 22 9 10 15 8 8 -2z
m-55 -5 c0 -2 -7 -7 -16 -10 -8 -3 -12 -2 -9 4 6 10 25 14 25 6z m30 -17 c0
-6 -4 -7 -10 -4 -5 3 -10 11 -10 16 0 6 5 7 10 4 6 -3 10 -11 10 -16z m152 -6
c-6 -2 -10 -8 -8 -12 3 -4 -6 -7 -19 -7 -32 0 -21 21 13 23 15 1 21 -1 14 -4z
m16406 -60 c-10 -2 -26 -2 -35 0 -10 3 -2 5 17 5 19 0 27 -2 18 -5z m-160 -30
c-10 -2 -26 -2 -35 0 -10 3 -2 5 17 5 19 0 27 -2 18 -5z m-325 -60 c-7 -2 -21
-2 -30 0 -10 3 -4 5 12 5 17 0 24 -2 18 -5z m-53 -13 c10 -6 2 -7 -25 -3 -49
7 -58 13 -19 13 16 0 36 -5 44 -10z m-182 -27 c-10 -2 -26 -2 -35 0 -10 3 -2
5 17 5 19 0 27 -2 18 -5z m-1185 -10 c-13 -2 -33 -2 -45 0 -13 2 -3 4 22 4 25
0 35 -2 23 -4z m800 -10 c-13 -2 -33 -2 -45 0 -13 2 -3 4 22 4 25 0 35 -2 23
-4z m197 -13 c-14 -4 -43 -8 -65 -8 l-40 1 45 7 c65 10 92 10 60 0z m-153 -26
c-3 -3 -12 -4 -19 -1 -8 3 -5 6 6 6 11 1 17 -2 13 -5z m-87 -14 c-14 -4 -43
-8 -65 -8 l-40 1 45 7 c65 10 92 10 60 0z m-100 -24 c0 -2 -18 -6 -40 -8 -22
-2 -40 0 -40 4 0 5 18 8 40 8 22 0 40 -2 40 -4z m-207 -33 c-7 -2 -19 -2 -25
0 -7 3 -2 5 12 5 14 0 19 -2 13 -5z m-150 -30 c-7 -2 -21 -2 -30 0 -10 3 -4 5
12 5 17 0 24 -2 18 -5z m-380 -20 c-13 -2 -33 -2 -45 0 -13 2 -3 4 22 4 25 0
35 -2 23 -4z m145 -20 c-10 -2 -26 -2 -35 0 -10 3 -2 5 17 5 19 0 27 -2 18 -5z
m-101 -19 c-3 -3 -12 -4 -19 -1 -8 3 -5 6 6 6 11 1 17 -2 13 -5z m-87 -13
c-46 -14 -100 -20 -100 -11 0 8 41 15 105 17 15 1 13 -1 -5 -6z m-372 -68
c-10 -2 -26 -2 -35 0 -10 3 -2 5 17 5 19 0 27 -2 18 -5z m-325 -60 c-7 -2 -21
-2 -30 0 -10 3 -4 5 12 5 17 0 24 -2 18 -5z m-176 -29 c-3 -3 -12 -4 -19 -1
-8 3 -5 6 6 6 11 1 17 -2 13 -5z m-59 -11 c-10 -2 -26 -2 -35 0 -10 3 -2 5 17
5 19 0 27 -2 18 -5z m-1185 -10 c-13 -2 -33 -2 -45 0 -13 2 -3 4 22 4 25 0 35
-2 23 -4z m997 -23 c-14 -4 -43 -8 -65 -8 l-40 1 45 7 c65 10 92 10 60 0z
m-153 -26 c-3 -3 -12 -4 -19 -1 -8 3 -5 6 6 6 11 1 17 -2 13 -5z m-187 -38 c0
-2 -18 -6 -40 -8 -22 -2 -40 0 -40 4 0 5 18 8 40 8 22 0 40 -2 40 -4z m-207
-33 c-7 -2 -19 -2 -25 0 -7 3 -2 5 12 5 14 0 19 -2 13 -5z m-150 -30 c-7 -2
-21 -2 -30 0 -10 3 -4 5 12 5 17 0 24 -2 18 -5z m-1180 -10 c-13 -2 -33 -2
-45 0 -13 2 -3 4 22 4 25 0 35 -2 23 -4z m800 -10 c-13 -2 -33 -2 -45 0 -13 2
-3 4 22 4 25 0 35 -2 23 -4z m204 -9 c-3 -3 -12 -4 -19 -1 -8 3 -5 6 6 6 11 1
17 -2 13 -5z m-59 -11 c-10 -2 -26 -2 -35 0 -10 3 -2 5 17 5 19 0 27 -2 18 -5z
m-188 -33 c-14 -4 -43 -8 -65 -8 l-40 1 45 7 c65 10 92 10 60 0z m-140 -30
c-20 -13 -40 -13 -40 0 0 6 12 10 28 10 21 0 24 -2 12 -10z m-173 -26 c-3 -3
-12 -4 -19 -1 -8 3 -5 6 6 6 11 1 17 -2 13 -5z m-59 -11 c-10 -2 -26 -2 -35 0
-10 3 -2 5 17 5 19 0 27 -2 18 -5z m-335 -60 c-7 -2 -19 -2 -25 0 -7 3 -2 5
12 5 14 0 19 -2 13 -5z m-166 -29 c-3 -3 -12 -4 -19 -1 -8 3 -5 6 6 6 11 1 17
-2 13 -5z m-59 -11 c-10 -2 -26 -2 -35 0 -10 3 -2 5 17 5 19 0 27 -2 18 -5z
m-1185 -10 c-13 -2 -33 -2 -45 0 -13 2 -3 4 22 4 25 0 35 -2 23 -4z m997 -23
c-14 -4 -43 -8 -65 -8 l-40 1 45 7 c65 10 92 10 60 0z m-147 -27 c-7 -2 -19
-2 -25 0 -7 3 -2 5 12 5 14 0 19 -2 13 -5z m-193 -37 c0 -2 -18 -6 -40 -8 -22
-2 -40 0 -40 4 0 5 18 8 40 8 22 0 40 -2 40 -4z m-170 -36 c10 -6 2 -7 -25 -3
-49 7 -58 13 -19 13 16 0 36 -5 44 -10z m-197 -27 c-7 -2 -19 -2 -25 0 -7 3
-2 5 12 5 14 0 19 -2 13 -5z m-1170 -10 c-13 -2 -33 -2 -45 0 -13 2 -3 4 22 4
25 0 35 -2 23 -4z m800 -10 c-13 -2 -33 -2 -45 0 -13 2 -3 4 22 4 25 0 35 -2
23 -4z m204 -9 c-3 -3 -12 -4 -19 -1 -8 3 -5 6 6 6 11 1 17 -2 13 -5z m-59
-11 c-10 -2 -26 -2 -35 0 -10 3 -2 5 17 5 19 0 27 -2 18 -5z m-188 -33 c-14
-4 -43 -8 -65 -8 l-40 1 45 7 c65 10 92 10 60 0z m-1010 -10 c0 -5 -5 -10 -11
-10 -5 0 -7 5 -4 10 3 6 8 10 11 10 2 0 4 -4 4 -10z m870 -20 c-20 -13 -40
-13 -40 0 0 6 12 10 28 10 21 0 24 -2 12 -10z m-860 -15 c0 -8 -2 -15 -4 -15
-2 0 -6 7 -10 15 -3 8 -1 15 4 15 6 0 10 -7 10 -15z m675 -15 c-11 -5 -38 -8
-60 -8 l-40 1 45 7 c64 10 78 10 55 0z m-667 -35 c-3 -3 -9 2 -12 12 -6 14 -5
15 5 6 7 -7 10 -15 7 -18z m285 -32 c-7 -2 -19 -2 -25 0 -7 3 -2 5 12 5 14 0
19 -2 13 -5z m-178 -33 c-11 -5 -38 -8 -60 -8 l-40 1 45 7 c64 10 78 10 55 0z
m-50 -413 c26 -25 -34 16 -65 43 l-35 32 45 -33 c25 -18 50 -37 55 -42z"/>
<path d="M56353 22759 c16 -9 17 -38 17 -374 l0 -365 265 0 265 0 0 359 c0
229 4 362 10 366 34 21 -13 25 -282 25 -204 -1 -288 -4 -275 -11z"/>
<path d="M56046 22675 c-3 -8 -1 -15 4 -15 6 0 10 7 10 15 0 8 -2 15 -4 15 -2
0 -6 -7 -10 -15z"/>
<path d="M56070 22657 c0 -9 -4 -16 -9 -14 -5 1 -9 -1 -10 -5 -3 -20 0 -28 9
-28 6 0 9 3 8 8 0 4 2 15 7 25 4 10 5 21 1 24 -3 4 -6 -1 -6 -10z"/>
<path d="M56060 22590 c0 -5 5 -10 10 -10 6 0 10 5 10 10 0 6 -4 10 -10 10 -5
0 -10 -4 -10 -10z"/>
<path d="M56024 22552 c-13 -12 -14 -17 -4 -20 7 -3 18 2 24 10 6 8 17 13 24
11 6 -3 12 -1 12 4 0 16 -39 12 -56 -5z"/>
<path d="M56015 22510 c-3 -5 -1 -10 4 -10 6 0 11 5 11 10 0 6 -2 10 -4 10 -3
0 -8 -4 -11 -10z"/>
<path d="M57476 22487 c3 -10 9 -15 12 -12 3 3 0 11 -7 18 -10 9 -11 8 -5 -6z"/>
<path d="M57443 22395 c0 -8 4 -12 9 -9 5 3 6 10 3 15 -9 13 -12 11 -12 -6z"/>
<path d="M57290 22256 c0 -7 40 -14 44 -7 3 4 -6 8 -20 9 -13 1 -24 0 -24 -2z"/>
<path d="M57130 22100 c-9 -6 -10 -10 -3 -10 6 0 15 5 18 10 8 12 4 12 -15 0z"/>
<path d="M56298 21423 c34 -2 90 -2 125 0 34 2 6 3 -63 3 -69 0 -97 -1 -62 -3z"/>
<path d="M56646 21392 c-3 -5 1 -15 8 -21 11 -10 14 -9 12 3 -3 21 -13 29 -20
18z"/>
<path d="M56645 21329 c-4 -6 -5 -12 -2 -15 2 -3 7 2 10 11 7 17 1 20 -8 4z"/>
<path d="M56496 20964 c-3 -8 -2 -12 4 -9 10 6 13 -3 13 -38 0 -14 2 -15 14
-6 7 7 11 14 8 17 -2 3 3 11 13 19 15 13 15 13 -5 3 -22 -10 -28 -5 -24 23 2
14 -17 7 -23 -9z"/>
<path d="M56428 20868 c-10 -10 -14 -18 -9 -18 10 0 36 29 30 34 -2 1 -12 -6
-21 -16z"/>
<path d="M56445 20849 c-11 -16 -1 -19 13 -3 7 8 8 14 3 14 -5 0 -13 -5 -16
-11z"/>
<path d="M56266 20704 c-6 -15 -4 -15 11 -3 10 7 20 15 22 16 2 2 -3 3 -11 3
-9 0 -19 -7 -22 -16z"/>
<path d="M23900 19649 c-287 -8 -451 -16 -635 -30 -165 -12 -469 -39 -472 -43
-5 -5 142 -382 151 -388 6 -4 8 -8 4 -8 -9 0 37 -127 52 -145 5 -7 7 -15 3
-18 -3 -4 -1 -7 6 -7 7 0 10 -4 7 -8 -5 -8 11 -55 45 -137 14 -33 16 -40 18
-56 0 -5 5 -8 9 -5 4 2 8 -3 9 -12 1 -26 9 -54 26 -92 9 -19 30 -77 48 -127
19 -51 37 -93 41 -93 4 0 5 -7 2 -15 -4 -8 -1 -15 6 -15 6 0 8 -4 5 -10 -3 -5
-2 -10 4 -10 6 0 8 -6 5 -14 -3 -7 2 -20 10 -29 8 -8 13 -17 10 -20 -6 -6 34
-109 48 -122 8 -7 8 -6 3 4 -6 10 -4 12 4 6 9 -5 9 -11 3 -17 -7 -7 -7 -20 0
-40 8 -22 13 -27 20 -16 5 8 6 4 2 -14 -4 -19 -1 -29 13 -37 10 -6 13 -11 6
-11 -13 0 6 -60 20 -60 4 0 5 -5 2 -10 -4 -6 -1 -18 6 -26 7 -9 14 -26 16 -37
4 -25 44 -129 52 -137 3 -3 6 -9 6 -15 0 -5 18 -58 40 -118 26 -69 44 -105 52
-102 13 4 39 -32 30 -42 -3 -2 -8 5 -12 16 -3 12 -11 19 -16 16 -15 -10 -11
-23 21 -58 17 -19 30 -38 30 -42 0 -4 -9 3 -20 16 -19 23 -19 22 1 -31 12 -30
24 -57 27 -60 4 -3 8 -14 9 -25 1 -11 10 -38 19 -60 10 -22 17 -43 16 -47 -1
-5 3 -8 10 -8 6 0 9 -3 5 -6 -11 -11 15 -64 31 -64 15 0 15 -2 2 -10 -13 -9
-12 -12 5 -25 11 -9 26 -13 33 -10 8 3 21 0 28 -6 11 -9 14 -8 14 5 0 9 5 16
11 16 5 0 7 5 4 10 -4 6 -11 7 -17 4 -6 -4 0 7 12 24 13 17 29 33 37 36 7 3
13 12 13 21 0 8 5 15 11 15 14 0 69 55 69 69 0 6 5 11 11 11 14 0 69 55 69 69
0 6 5 11 11 11 14 0 69 55 69 69 0 6 5 11 11 11 14 0 69 55 69 69 0 6 5 11 11
11 14 0 69 55 69 69 0 6 5 11 11 11 14 0 69 55 69 69 0 6 5 11 11 11 14 0 69
55 69 69 0 6 5 11 11 11 14 0 69 55 69 69 0 6 5 11 11 11 14 0 69 55 69 69 0
6 5 11 11 11 14 0 69 55 69 69 0 6 5 11 11 11 14 0 69 55 69 69 0 6 5 11 11
11 14 0 69 55 69 69 0 6 5 11 11 11 14 0 69 55 69 69 0 6 5 11 11 11 14 0 69
55 69 69 0 6 5 11 11 11 14 0 69 55 69 69 0 6 5 11 11 11 14 0 69 55 69 69 0
6 5 11 11 11 14 0 69 55 69 69 0 6 182 193 404 415 349 349 408 404 428 399
13 -3 19 -2 15 2 -10 12 -139 45 -149 39 -4 -3 -14 -2 -20 3 -25 15 -37 10
-43 -18 -4 -16 -11 -26 -16 -23 -6 4 -6 11 2 20 17 21 3 44 -26 44 -17 0 -24
-4 -19 -12 4 -7 3 -8 -5 -4 -6 4 -9 11 -6 15 6 10 -121 32 -141 24 -8 -3 -14
0 -14 5 0 16 -42 11 -65 -7 -18 -15 -19 -15 -7 1 11 14 10 17 -9 23 -14 5 -25
2 -30 -6 -6 -10 -9 -10 -9 -2 0 18 -67 28 -85 13 -13 -11 -14 -10 -10 1 7 19
-51 25 -72 8 -11 -10 -13 -10 -11 1 2 8 -5 16 -16 18 -13 3 -16 0 -10 -10 6
-11 5 -11 -9 1 -9 7 -26 11 -36 8 -11 -3 -21 -1 -23 4 -3 7 -63 12 -307 25
-54 3 -89 0 -98 -7 -7 -7 -16 -9 -20 -5 -3 3 -1 6 6 6 7 0 9 5 6 10 -9 14 -68
12 -84 -2 -11 -11 -12 -10 -7 0 6 10 -17 13 -119 11 -69 0 -129 2 -132 5 -8 7
-240 5 -563 -5z m745 -19 c3 -6 -1 -7 -9 -4 -18 7 -21 14 -7 14 6 0 13 -4 16
-10z m685 -70 c0 -5 -5 -10 -11 -10 -5 0 -7 5 -4 10 3 6 8 10 11 10 2 0 4 -4
4 -10z m-2075 -1070 c-3 -5 -12 -10 -18 -10 -7 0 -6 4 3 10 19 12 23 12 15 0z
m95 -177 c0 -10 -4 -14 -8 -8 -4 6 -11 13 -16 18 -5 4 -2 7 7 7 10 0 17 -8 17
-17z m48 -238 c-3 -3 -9 2 -12 12 -6 14 -5 15 5 6 7 -7 10 -15 7 -18z m21 -41
c-18 -22 -34 -1 -18 25 12 17 15 18 22 5 5 -9 4 -21 -4 -30z m70 -239 c0 -5
-4 -3 -9 5 -5 8 -9 22 -9 30 0 16 17 -16 18 -35z m26 -34 c3 -5 2 -12 -3 -15
-5 -3 -9 1 -9 9 0 17 3 19 12 6z m29 -77 c3 -8 2 -12 -4 -9 -6 3 -10 10 -10
16 0 14 7 11 14 -7z m54 -9 c-3 -3 -9 2 -12 12 -6 14 -5 15 5 6 7 -7 10 -15 7
-18z m75 -320 c-3 -9 -8 -14 -10 -11 -3 3 -2 9 2 15 9 16 15 13 8 -4z m87
-149 c0 -2 -8 -10 -17 -17 -16 -13 -17 -12 -4 4 13 16 21 21 21 13z"/>
<path d="M23407 18053 c-4 -3 -7 -11 -7 -17 0 -6 5 -5 12 2 6 6 9 14 7 17 -3
3 -9 2 -12 -2z"/>
<path d="M26060 19466 c0 -2 9 -6 20 -9 11 -3 18 -1 14 4 -5 9 -34 13 -34 5z"/>
<path d="M26120 19438 c8 -24 7 -28 -8 -29 -14 0 -14 -2 -2 -6 8 -3 18 -11 22
-17 4 -6 8 0 8 15 0 14 -7 34 -15 45 -14 18 -14 17 -5 -8z"/>
<path d="M26140 19439 c0 -5 7 -9 15 -9 8 0 15 -4 15 -10 0 -5 4 -10 10 -10 5
0 7 6 4 14 -6 16 -44 29 -44 15z"/>
<path d="M26220 19405 c28 -30 29 -30 27 -6 0 11 -6 17 -14 14 -7 -3 -13 0
-13 6 0 6 -5 11 -12 11 -6 0 -1 -11 12 -25z"/>
<path d="M26276 19402 c21 -18 63 -31 69 -21 4 5 3 9 -2 8 -4 -1 -21 3 -36 9
-33 14 -45 15 -31 4z"/>
<path d="M26190 19390 c0 -5 5 -10 10 -10 6 0 10 5 10 10 0 6 -4 10 -10 10 -5
0 -10 -4 -10 -10z"/>
<path d="M26360 19369 c0 -5 -10 -9 -22 -9 -20 -1 -20 -2 7 -15 l30 -13 -27
-1 c-16 -1 -28 -5 -28 -10 0 -4 12 -6 26 -3 19 3 25 1 20 -7 -11 -17 53 -14
70 4 9 8 20 15 26 15 6 0 6 -6 -2 -15 -10 -12 -10 -15 3 -15 14 0 18 23 5 35
-12 13 -108 43 -108 34z m70 -31 c0 -15 -18 -17 -36 -4 -17 13 -17 14 9 13 15
-1 27 -5 27 -9z"/>
<path d="M26506 19312 c-2 -4 7 -9 22 -10 21 -1 24 0 12 8 -18 12 -27 12 -34
2z"/>
<path d="M26564 19270 c0 -21 4 -27 15 -23 12 4 12 1 -2 -10 -17 -14 -17 -15
7 -13 28 1 29 15 2 35 -13 10 -15 16 -6 21 9 5 8 9 -2 13 -10 3 -14 -3 -14
-23z"/>
<path d="M26638 19245 c2 -14 8 -22 13 -19 5 3 7 10 4 15 -3 5 1 6 9 3 9 -3
13 -11 9 -17 -3 -6 -1 -7 5 -3 17 10 15 14 -17 30 -27 15 -28 14 -23 -9z"/>
<path d="M26724 19193 c1 -34 10 -36 19 -3 3 11 1 18 -3 15 -5 -3 -10 1 -13 7
-2 7 -4 -1 -3 -19z"/>
<path d="M26750 19180 c-14 -26 -5 -41 23 -36 22 3 38 36 17 36 -6 0 -8 -4 -5
-10 3 -5 1 -10 -4 -10 -10 0 -15 14 -12 33 2 14 -8 7 -19 -13z"/>
<path d="M26805 19130 c-3 -5 -1 -10 4 -10 6 0 11 5 11 10 0 6 -2 10 -4 10 -3
0 -8 -4 -11 -10z"/>
<path d="M26820 19090 c0 -5 5 -10 11 -10 5 0 7 5 4 10 -3 6 -8 10 -11 10 -2
0 -4 -4 -4 -10z"/>
<path d="M26969 19028 c0 -2 -2 -14 -5 -28 -3 -19 -2 -21 6 -10 6 10 10 11 10
3 0 -7 5 -13 11 -13 8 0 9 4 0 13 -6 8 -8 16 -5 19 3 3 1 9 -5 13 -6 3 -11 5
-12 3z"/>
<path d="M26960 18885 c0 -9 6 -12 15 -9 8 4 15 10 15 15 0 5 -7 9 -15 9 -8 0
-15 -7 -15 -15z"/>
<path d="M26880 18805 c0 -9 6 -12 15 -9 8 4 15 10 15 15 0 5 -7 9 -15 9 -8 0
-15 -7 -15 -15z"/>
<path d="M26800 18725 c0 -9 6 -12 15 -9 8 4 15 10 15 15 0 5 -7 9 -15 9 -8 0
-15 -7 -15 -15z"/>
<path d="M26720 18645 c0 -9 6 -12 15 -9 8 4 15 10 15 15 0 5 -7 9 -15 9 -8 0
-15 -7 -15 -15z"/>
<path d="M26640 18565 c0 -9 6 -12 15 -9 8 4 15 10 15 15 0 5 -7 9 -15 9 -8 0
-15 -7 -15 -15z"/>
<path d="M26560 18485 c0 -9 6 -12 15 -9 8 4 15 10 15 15 0 5 -7 9 -15 9 -8 0
-15 -7 -15 -15z"/>
<path d="M26480 18405 c0 -9 6 -12 15 -9 8 4 15 10 15 15 0 5 -7 9 -15 9 -8 0
-15 -7 -15 -15z"/>
<path d="M26400 18325 c0 -9 6 -12 15 -9 8 4 15 10 15 15 0 5 -7 9 -15 9 -8 0
-15 -7 -15 -15z"/>
<path d="M26320 18245 c0 -9 6 -12 15 -9 8 4 15 10 15 15 0 5 -7 9 -15 9 -8 0
-15 -7 -15 -15z"/>
<path d="M26240 18165 c0 -9 6 -12 15 -9 8 4 15 10 15 15 0 5 -7 9 -15 9 -8 0
-15 -7 -15 -15z"/>
<path d="M26160 18085 c0 -9 6 -12 15 -9 8 4 15 10 15 15 0 5 -7 9 -15 9 -8 0
-15 -7 -15 -15z"/>
<path d="M26080 18005 c0 -9 6 -12 15 -9 8 4 15 10 15 15 0 5 -7 9 -15 9 -8 0
-15 -7 -15 -15z"/>
<path d="M26000 17925 c0 -9 6 -12 15 -9 8 4 15 10 15 15 0 5 -7 9 -15 9 -8 0
-15 -7 -15 -15z"/>
<path d="M24465 17870 c-3 -5 -1 -10 4 -10 6 0 11 5 11 10 0 6 -2 10 -4 10 -3
0 -8 -4 -11 -10z"/>
<path d="M25920 17845 c0 -9 6 -12 15 -9 8 4 15 10 15 15 0 5 -7 9 -15 9 -8 0
-15 -7 -15 -15z"/>
<path d="M24385 17790 c-3 -5 -1 -10 4 -10 6 0 11 5 11 10 0 6 -2 10 -4 10 -3
0 -8 -4 -11 -10z"/>
<path d="M25840 17765 c0 -9 6 -12 15 -9 8 4 15 10 15 15 0 5 -7 9 -15 9 -8 0
-15 -7 -15 -15z"/>
<path d="M27476 17767 c3 -10 9 -15 12 -12 3 3 0 11 -7 18 -10 9 -11 8 -5 -6z"/>
<path d="M63750 17736 c0 -3 9 -10 20 -16 11 -6 20 -8 20 -6 0 3 -9 10 -20 16
-11 6 -20 8 -20 6z"/>
<path d="M24305 17710 c-3 -5 -1 -10 4 -10 6 0 11 5 11 10 0 6 -2 10 -4 10 -3
0 -8 -4 -11 -10z"/>
<path d="M25760 17685 c0 -9 6 -12 15 -9 8 4 15 10 15 15 0 5 -7 9 -15 9 -8 0
-15 -7 -15 -15z"/>
<path d="M24225 17630 c-3 -5 -1 -10 4 -10 6 0 11 5 11 10 0 6 -2 10 -4 10 -3
0 -8 -4 -11 -10z"/>
<path d="M48790 17630 c0 -12 837 -12 970 -1 50 5 -130 9 -442 9 -347 1 -528
-1 -528 -8z"/>
<path d="M47728 17625 c-3 -3 -157 -6 -344 -7 -205 -2 -319 -6 -289 -10 28 -5
194 -6 370 -3 176 3 507 5 735 6 228 1 451 4 495 9 46 4 -142 8 -441 8 -286 1
-523 0 -526 -3z"/>
<path d="M25680 17605 c0 -9 6 -12 15 -9 8 4 15 10 15 15 0 5 -7 9 -15 9 -8 0
-15 -7 -15 -15z"/>
<path d="M46667 17613 c-2 -2 -81 -4 -176 -4 -113 -1 -171 -5 -171 -12 0 -7
45 -8 143 -4 78 4 241 7 361 7 121 0 217 2 215 4 -5 5 -367 15 -372 9z"/>
<path d="M45910 17600 c-11 -7 1 -10 38 -10 28 0 52 3 52 8 0 11 -73 13 -90 2z"/>
<path d="M46093 17603 c9 -2 23 -2 30 0 6 3 -1 5 -18 5 -16 0 -22 -2 -12 -5z"/>
<path d="M46160 17600 c0 -6 32 -10 75 -9 41 1 73 5 70 9 -7 12 -145 11 -145
0z"/>
<path d="M44561 17596 c2 -2 36 -6 74 -9 54 -4 61 -4 30 3 -40 9 -112 13 -104
6z"/>
<path d="M44805 17590 c-3 -5 -2 -10 4 -10 5 0 13 5 16 10 3 6 2 10 -4 10 -5
0 -13 -4 -16 -10z"/>
<path d="M44892 17590 c18 -11 68 -10 68 2 0 4 -19 8 -42 8 -33 -1 -39 -3 -26
-10z"/>
<path d="M45100 17590 c-20 -6 -21 -8 -5 -8 11 0 31 4 45 8 20 6 21 8 5 8 -11
0 -31 -4 -45 -8z"/>
<path d="M45240 17590 c-38 -6 -33 -7 35 -8 53 0 73 2 60 8 -23 10 -32 10 -95
0z"/>
<path d="M45773 17593 c15 -2 37 -2 50 0 12 2 0 4 -28 4 -27 0 -38 -2 -22 -4z"/>
<path d="M45858 17593 c6 -2 18 -2 25 0 6 3 1 5 -13 5 -14 0 -19 -2 -12 -5z"/>
<path d="M44038 17573 c7 -3 16 -2 19 1 4 3 -2 6 -13 5 -11 0 -14 -3 -6 -6z"/>
<path d="M24145 17550 c-3 -5 -1 -10 4 -10 6 0 11 5 11 10 0 6 -2 10 -4 10 -3
0 -8 -4 -11 -10z"/>
<path d="M25600 17515 c0 -22 3 -24 19 -16 31 17 34 41 6 41 -20 0 -25 -5 -25
-25z"/>
<path d="M24065 17470 c-3 -5 -1 -10 4 -10 6 0 11 5 11 10 0 6 -2 10 -4 10 -3
0 -8 -4 -11 -10z"/>
<path d="M25520 17435 c0 -22 3 -24 19 -16 31 17 34 41 6 41 -20 0 -25 -5 -25
-25z"/>
<path d="M23985 17390 c-3 -5 -1 -10 4 -10 6 0 11 5 11 10 0 6 -2 10 -4 10 -3
0 -8 -4 -11 -10z"/>
<path d="M25440 17355 c0 -22 3 -24 19 -16 31 17 34 41 6 41 -20 0 -25 -5 -25
-25z"/>
<path d="M23905 17310 c-3 -5 -1 -10 4 -10 6 0 11 5 11 10 0 6 -2 10 -4 10 -3
0 -8 -4 -11 -10z"/>
<path d="M25360 17275 c0 -22 3 -24 19 -16 31 17 34 41 6 41 -20 0 -25 -5 -25
-25z"/>
<path d="M23810 17225 c-22 -13 -23 -15 -6 -21 17 -6 17 -8 1 -16 -15 -9 -15
-11 2 -24 22 -17 37 -18 27 -2 -5 7 -3 8 7 2 8 -4 19 -9 24 -10 6 -1 19 -6 29
-10 14 -5 17 -4 12 4 -4 7 -2 12 3 12 14 0 14 50 1 51 -45 6 -65 3 -65 -11 0
-8 6 -14 13 -12 6 1 12 -3 12 -10 0 -6 7 -3 16 8 15 18 15 18 4 -3 -9 -20 -13
-21 -36 -11 -21 10 -24 16 -19 40 4 15 5 28 3 27 -2 -1 -14 -7 -28 -14z"/>
<path d="M25280 17195 c0 -22 3 -24 19 -16 31 17 34 41 6 41 -20 0 -25 -5 -25
-25z"/>
<path d="M23938 17133 c6 -2 18 -2 25 0 6 3 1 5 -13 5 -14 0 -19 -2 -12 -5z"/>
<path d="M23980 17126 c0 -5 14 -6 30 -2 17 3 30 1 30 -4 0 -5 8 -8 18 -8 9 0
32 -2 50 -6 19 -4 32 -2 32 4 0 5 7 10 15 10 8 0 15 4 15 9 0 5 -43 8 -95 8
-52 -1 -95 -6 -95 -11z m144 -4 c3 -5 -1 -9 -9 -9 -8 0 -12 4 -9 9 3 4 7 8 9
8 2 0 6 -4 9 -8z"/>
<path d="M24210 17133 c-32 -10 -60 -27 -60 -35 0 -5 4 -7 8 -4 5 3 30 -1 56
-9 26 -8 44 -10 41 -6 -2 5 3 12 12 15 15 6 15 8 3 16 -11 7 -10 9 7 7 12 0
19 -5 17 -9 -3 -4 2 -8 10 -8 9 0 16 8 16 19 0 15 -7 18 -36 16 -19 -1 -40 -7
-47 -14 -16 -16 -32 -13 -17 4 7 8 11 15 9 14 -2 0 -11 -3 -19 -6z m35 -32
c-3 -6 -14 -11 -23 -11 -13 0 -13 2 4 14 21 15 30 14 19 -3z"/>
<path d="M25200 17115 c0 -22 3 -24 19 -16 31 17 34 41 6 41 -20 0 -25 -5 -25
-25z"/>
<path d="M24277 17093 c-4 -3 -7 -11 -7 -16 0 -6 3 -7 6 -4 4 3 14 2 24 -3 12
-6 17 -5 17 6 0 7 -3 12 -5 9 -3 -3 -10 0 -17 5 -7 5 -15 7 -18 3z"/>
<path d="M24368 17053 c6 -2 18 -2 25 0 6 3 1 5 -13 5 -14 0 -19 -2 -12 -5z"/>
<path d="M24421 17049 c9 -4 32 -11 50 -14 19 -3 49 -8 68 -11 24 -5 32 -3 27
5 -5 7 -1 9 8 5 9 -3 13 -11 9 -18 -3 -6 4 -2 17 9 23 20 23 20 16 0 -4 -11
-4 -16 0 -12 4 4 12 3 18 -2 14 -11 94 -25 84 -15 -9 9 10 34 26 34 6 0 4 -5
-4 -10 -20 -13 -10 -12 29 1 29 10 44 39 20 39 -5 0 -7 -5 -4 -10 10 -16 -23
-24 -40 -10 -9 7 -55 14 -111 16 -84 3 -95 1 -90 -13 6 -14 4 -14 -10 -2 -9 8
-42 15 -73 16 -37 1 -50 -2 -40 -8z m244 -24 c6 0 16 4 23 8 7 5 12 4 12 -2 0
-6 -3 -11 -7 -12 -5 0 -18 -2 -30 -5 -17 -3 -23 1 -23 14 0 10 3 13 8 7 4 -6
12 -10 17 -10z"/>
<path d="M25120 17035 c0 -22 3 -24 19 -16 31 17 34 41 6 41 -20 0 -25 -5 -25
-25z"/>
<path d="M40038 16783 c23 -2 61 -2 85 0 23 2 4 4 -43 4 -47 0 -66 -2 -42 -4z"/>
<path d="M39840 16755 l-85 -12 83 -2 c45 0 82 3 82 8 0 6 19 12 43 14 l42 4
-40 0 c-22 0 -78 -5 -125 -12z"/>
<path d="M39360 16670 c0 -5 18 -10 40 -10 22 0 40 5 40 10 0 6 -18 10 -40 10
-22 0 -40 -4 -40 -10z"/>
<path d="M26720 16650 c8 -5 20 -10 25 -10 6 0 3 5 -5 10 -8 5 -19 10 -25 10
-5 0 -3 -5 5 -10z"/>
<path d="M26866 16632 c-3 -5 1 -9 9 -9 8 0 12 4 9 9 -3 4 -7 8 -9 8 -2 0 -6
-4 -9 -8z"/>
<path d="M26945 16590 c3 -5 8 -10 11 -10 2 0 4 5 4 10 0 6 -5 10 -11 10 -5 0
-7 -4 -4 -10z"/>
<path d="M38978 16593 c12 -2 32 -2 45 0 12 2 2 4 -23 4 -25 0 -35 -2 -22 -4z"/>
<path d="M39218 16583 c12 -2 32 -2 45 0 12 2 2 4 -23 4 -25 0 -35 -2 -22 -4z"/>
<path d="M27333 16567 c0 -8 6 -14 14 -14 9 0 10 4 2 14 -6 7 -12 13 -14 13
-1 0 -2 -6 -2 -13z"/>
<path d="M27276 16542 c-3 -5 1 -9 9 -9 8 0 12 4 9 9 -3 4 -7 8 -9 8 -2 0 -6
-4 -9 -8z"/>
<path d="M27526 16532 c-3 -5 1 -9 9 -9 8 0 12 4 9 9 -3 4 -7 8 -9 8 -2 0 -6
-4 -9 -8z"/>
<path d="M38658 16533 c12 -2 32 -2 45 0 12 2 2 4 -23 4 -25 0 -35 -2 -22 -4z"/>
<path d="M27555 16511 c-3 -5 -2 -12 3 -15 5 -3 9 1 9 9 0 17 -3 19 -12 6z"/>
<path d="M38498 16513 c12 -2 32 -2 45 0 12 2 2 4 -23 4 -25 0 -35 -2 -22 -4z"/>
<path d="M38738 16503 c12 -2 32 -2 45 0 12 2 2 4 -23 4 -25 0 -35 -2 -22 -4z"/>
<path d="M38000 16430 c0 -5 18 -10 40 -10 22 0 40 5 40 10 0 6 -18 10 -40 10
-22 0 -40 -4 -40 -10z"/>
<path d="M38240 16430 c0 -5 18 -10 40 -10 22 0 40 5 40 10 0 6 -18 10 -40 10
-22 0 -40 -4 -40 -10z"/>
<path d="M37618 16353 c12 -2 32 -2 45 0 12 2 2 4 -23 4 -25 0 -35 -2 -22 -4z"/>
<path d="M37858 16343 c12 -2 32 -2 45 0 12 2 2 4 -23 4 -25 0 -35 -2 -22 -4z"/>
<path d="M37120 16270 c0 -5 18 -10 40 -10 22 0 40 5 40 10 0 6 -18 10 -40 10
-22 0 -40 -4 -40 -10z"/>
<path d="M36738 16193 c12 -2 32 -2 45 0 12 2 2 4 -23 4 -25 0 -35 -2 -22 -4z"/>
<path d="M36978 16183 c12 -2 32 -2 45 0 12 2 2 4 -23 4 -25 0 -35 -2 -22 -4z"/>
<path d="M36418 16133 c12 -2 32 -2 45 0 12 2 2 4 -23 4 -25 0 -35 -2 -22 -4z"/>
<path d="M36258 16113 c12 -2 32 -2 45 0 12 2 2 4 -23 4 -25 0 -35 -2 -22 -4z"/>
<path d="M35036 16035 c-3 -9 0 -15 9 -15 16 0 20 16 6 24 -5 3 -11 -1 -15 -9z"/>
<path d="M35760 16030 c0 -11 43 -12 115 0 47 7 45 7 -32 9 -50 0 -83 -3 -83
-9z"/>
<path d="M36000 16030 c0 -5 18 -10 40 -10 22 0 40 5 40 10 0 6 -18 10 -40 10
-22 0 -40 -4 -40 -10z"/>
<path d="M35538 15973 c12 -2 32 -2 45 0 12 2 2 4 -23 4 -25 0 -35 -2 -22 -4z"/>
<path d="M35378 15953 c12 -2 32 -2 45 0 12 2 2 4 -23 4 -25 0 -35 -2 -22 -4z"/>
<path d="M35618 15943 c12 -2 32 -2 45 0 12 2 2 4 -23 4 -25 0 -35 -2 -22 -4z"/>
<path d="M34993 15904 c-8 -4 -6 -11 8 -25 23 -23 29 -24 29 -4 0 8 -8 15 -17
15 -15 0 -16 2 -3 10 15 10 4 12 -17 4z"/>
<path d="M35138 15863 c12 -2 32 -2 45 0 12 2 2 4 -23 4 -25 0 -35 -2 -22 -4z"/>
<path d="M34966 15835 c-3 -8 -1 -15 4 -15 6 0 10 6 11 13 1 6 4 1 8 -12 4
-14 12 -26 18 -28 9 -3 9 3 0 26 -12 33 -31 40 -41 16z"/>
<path d="M62922 11905 c4 -4 2 -15 -5 -24 -11 -14 -10 -14 6 -2 14 11 17 11
17 0 0 -11 2 -11 10 1 7 10 10 11 10 2 0 -7 -9 -20 -20 -29 -11 -10 -20 -22
-20 -28 0 -5 4 -3 10 5 5 8 13 11 17 6 11 -11 13 -76 2 -76 -5 0 -9 -7 -9 -15
0 -8 5 -15 12 -15 6 0 3 -6 -8 -14 -18 -14 -18 -15 -1 -21 9 -4 17 -11 17 -17
0 -5 -4 -6 -10 -3 -13 8 -13 0 0 -23 14 -26 256 -639 279 -710 57 -168 30
-219 -82 -153 -27 15 -79 56 -117 90 -38 33 -72 57 -75 51 -3 -5 -3 -14 0 -20
3 -5 1 -10 -5 -10 -8 0 -10 9 -6 24 3 14 0 28 -7 35 -10 8 -14 7 -14 -4 0 -8
4 -12 9 -9 4 3 8 0 8 -5 0 -6 -8 -11 -17 -11 -15 0 -16 -2 -3 -10 8 -5 11 -10
5 -10 -6 0 -9 -78 -8 -217 3 -251 2 -234 13 -208 8 19 9 19 9 -2 1 -12 6 -25
11 -28 6 -4 8 -11 4 -16 -3 -5 -10 -7 -15 -3 -5 3 -7 9 -5 13 3 4 -1 8 -8 8
-42 0 282 -334 402 -416 147 -99 257 -128 307 -81 38 36 49 82 42 189 -13 200
-97 458 -316 971 -163 379 -369 775 -406 775 -6 0 -17 4 -25 9 -8 5 -12 6 -8
1z m35 -1427 c-3 -8 -6 -5 -6 6 -1 11 2 17 5 13 3 -3 4 -12 1 -19z"/>
<path d="M62928 11803 c6 -2 9 -10 6 -15 -4 -7 -2 -8 5 -4 13 9 5 26 -12 25
-9 0 -8 -2 1 -6z"/>
<path d="M55305 11015 c-99 -19 -181 -34 -182 -34 -2 -1 -3 -8 -3 -17 0 -8 -5
-12 -10 -9 -6 4 -7 12 -3 18 5 8 2 8 -9 0 -8 -7 -18 -10 -21 -6 -7 7 -11 -12
-7 -36 1 -8 -4 -18 -12 -22 -10 -7 -10 -9 0 -9 7 0 17 11 22 25 5 14 12 25 16
25 3 0 4 -7 0 -15 -3 -8 0 -15 6 -15 9 0 9 -3 0 -12 -9 -9 -12 -77 -12 -245 0
-206 -2 -237 -17 -260 -10 -15 -13 -24 -6 -20 6 4 14 3 17 -1 8 -14 82 -13
241 3 404 42 663 102 703 163 15 23 17 50 15 197 -3 162 -19 365 -22 268 -1
-40 -3 -43 -55 -68 -92 -45 -215 -43 -366 5 -70 23 -90 40 -90 77 0 28 15 29
-205 -12z m-183 -602 c-6 -3 -9 -10 -6 -15 4 -7 2 -8 -4 -4 -7 4 -12 1 -12 -6
0 -10 -3 -9 -9 2 -13 19 -7 25 21 27 13 0 17 -1 10 -4z"/>
</g>
</svg>
