<svg width="27" height="22" viewBox="0 0 27 22" fill="none" xmlns="http://www.w3.org/2000/svg">
<path d="M26.0115 6.38953L13.8231 0.295323C13.617 0.192249 13.383 0.192249 13.1769 0.295323L0.988507 6.38953C0.33724 6.71516 0.337088 7.78439 0.988507 8.11002L5.3744 10.3029V16.1567C5.3744 19.3111 8.94357 21.7821 13.5 21.7821C18.0564 21.7821 21.6256 19.3111 21.6256 16.1567V10.3029L22.4382 9.89668V19.9069C22.4382 20.4247 22.802 20.8445 23.2507 20.8445C23.6995 20.8445 24.0633 20.4247 24.0633 19.9069V9.08416L26.0115 8.11008C26.6628 7.78445 26.6629 6.71521 26.0115 6.38953ZM13.5 2.17738L23.6448 7.2498L22.8402 7.65208L13.6008 6.31944C13.1554 6.25563 12.7494 6.6197 12.6937 7.13349C12.638 7.64728 12.9539 8.11588 13.3992 8.18011L19.9069 9.11873L13.5 12.3222C7.76856 9.45643 8.98928 10.0668 3.35524 7.24975L13.5 2.17738ZM20.0005 16.1567C20.0005 17.0401 19.3721 17.9496 18.2765 18.6519C15.6671 20.3246 11.3405 20.3295 8.72352 18.6519C7.62789 17.9496 6.99952 17.0401 6.99952 16.1567V11.1156L13.1769 14.2043C13.3827 14.3072 13.6166 14.3075 13.8231 14.2043L20.0005 11.1156V16.1567Z" fill="#8C8C8C"/>
</svg>
