<svg width="25" height="19" viewBox="0 0 25 19" fill="none" xmlns="http://www.w3.org/2000/svg">
<path d="M0.78123 2.46871H24.2187C24.65 2.46871 24.9999 2.11868 24.9999 1.68748C24.9999 1.25621 24.6499 0.90625 24.2187 0.90625H0.78123C0.350027 0.90625 0 1.25621 0 1.68748C0 2.11875 0.350027 2.46871 0.78123 2.46871Z" fill="#8C8C8C"/>
<path d="M24.2187 8.71875H0.78123C0.349962 8.71875 0 9.06878 0 9.49998C0 9.93118 0.350027 10.2812 0.78123 10.2812H24.2187C24.65 10.2812 24.9999 9.93118 24.9999 9.49998C24.9999 9.06878 24.65 8.71875 24.2187 8.71875Z" fill="#8C8C8C"/>
<path d="M24.2187 16.5312H0.78123C0.349962 16.5312 0 16.8813 0 17.3125C0 17.7437 0.350027 18.0937 0.78123 18.0937H24.2187C24.65 18.0937 24.9999 17.7437 24.9999 17.3125C25 16.8812 24.65 16.5312 24.2187 16.5312Z" fill="#8C8C8C"/>
</svg>
