<svg width="25" height="25" viewBox="0 0 25 25" fill="none" xmlns="http://www.w3.org/2000/svg">
<path d="M12.5004 0C5.59421 0 0 5.59421 0 12.5004C0 19.4032 5.59421 25 12.5004 25C19.4066 25 24.9992 19.4032 24.9992 12.5004C24.9992 5.59421 19.4066 0 12.5004 0ZM12.5004 22.9609C6.72253 22.9609 2.03911 18.2783 2.03911 12.4996C2.03911 6.71999 6.72253 2.03572 12.5004 2.03572C18.2783 2.03572 22.9626 6.72084 22.9626 12.5004C22.9626 18.2783 18.2783 22.9609 12.5004 22.9609Z" fill="#8C8C8C"/>
<path d="M13.8294 15.204L14.3373 4.74097H10.6865L11.1961 15.204H13.8294Z" fill="#8C8C8C"/>
<path d="M12.5114 16.356C11.2883 16.356 10.4333 17.2117 10.4333 18.4594C10.4333 19.6597 11.2646 20.5603 12.4631 20.5603H12.5114C13.7582 20.5603 14.5666 19.6597 14.5666 18.4594C14.5437 17.2117 13.7354 16.356 12.5114 16.356Z" fill="#8C8C8C"/>
</svg>
