<svg width="33" height="31" viewBox="0 0 33 31" fill="none" xmlns="http://www.w3.org/2000/svg">
<g filter="url(#filter0_d)">
<path d="M26.8711 9.70703L24.0195 3.03223C23.7754 2.45605 23.209 2.08496 22.584 2.08496H10.416C9.79102 2.08496 9.22949 2.45605 8.98047 3.03223L6.12891 9.70703C4.87402 10.2832 4 11.5527 4 13.0225V17.1875C4 18.0469 4.70312 18.75 5.5625 18.75H6.08496V21.3525C6.08496 22.2119 6.78809 22.915 7.64746 22.915H9.73242C10.5918 22.915 11.2949 22.2119 11.2949 21.3525V18.75H21.71V21.3525C21.71 22.2119 22.4131 22.915 23.2725 22.915H25.3574C26.2168 22.915 26.9199 22.2119 26.9199 21.3525V18.75H27.4375C28.2969 18.75 29 18.0469 29 17.1875V13.0225C29 11.5527 28.126 10.2832 26.8711 9.70703ZM9.9375 3.44238C10.0205 3.25195 10.2061 3.125 10.416 3.125H22.584C22.7939 3.125 22.9795 3.24707 23.0625 3.4375L25.6016 9.37988C25.5186 9.375 25.4355 9.37012 25.3574 9.37012H7.64746C7.56445 9.37012 7.48145 9.375 7.40332 9.37988L9.9375 3.44238ZM10.25 21.3525C10.25 21.6406 10.0156 21.875 9.72754 21.875H7.64746C7.35937 21.875 7.125 21.6406 7.125 21.3525V18.75H10.25V21.3525ZM25.3525 21.875H23.2676C22.9795 21.875 22.7451 21.6406 22.7451 21.3525V18.75H25.8701V21.3525H25.875C25.875 21.6406 25.6406 21.875 25.3525 21.875ZM27.4375 17.71H26.3975H22.2324H10.7725H6.60254H5.5625C5.27441 17.71 5.04004 17.4756 5.04004 17.1875V13.0225C5.04004 11.5869 6.20703 10.4199 7.64258 10.4199H25.3525C26.7881 10.4199 27.9551 11.5869 27.9551 13.0225V17.1875H27.96C27.96 17.4756 27.7256 17.71 27.4375 17.71Z" fill="#8C8C8C"/>
<path d="M8.6875 11.46C7.25195 11.46 6.08496 12.627 6.08496 14.0625C6.08496 15.498 7.25195 16.665 8.6875 16.665C10.123 16.665 11.29 15.498 11.29 14.0625C11.29 12.627 10.123 11.46 8.6875 11.46ZM8.6875 15.625C7.82813 15.625 7.125 14.9219 7.125 14.0625C7.125 13.2031 7.82813 12.5 8.6875 12.5C9.54688 12.5 10.25 13.2031 10.25 14.0625C10.25 14.9219 9.54688 15.625 8.6875 15.625Z" fill="#8C8C8C"/>
<path d="M24.3125 11.46C22.877 11.46 21.71 12.627 21.71 14.0625C21.71 15.498 22.877 16.665 24.3125 16.665C25.748 16.665 26.915 15.498 26.915 14.0625C26.915 12.627 25.748 11.46 24.3125 11.46ZM24.3125 15.625C23.4531 15.625 22.75 14.9219 22.75 14.0625C22.75 13.2031 23.4531 12.5 24.3125 12.5C25.1719 12.5 25.875 13.2031 25.875 14.0625C25.875 14.9219 25.1719 15.625 24.3125 15.625Z" fill="#8C8C8C"/>
</g>
<defs>
<filter id="filter0_d" x="0" y="0" width="33" height="33" filterUnits="userSpaceOnUse" color-interpolation-filters="sRGB">
<feFlood flood-opacity="0" result="BackgroundImageFix"/>
<feColorMatrix in="SourceAlpha" type="matrix" values="0 0 0 0 0 0 0 0 0 0 0 0 0 0 0 0 0 0 127 0"/>
<feOffset dy="4"/>
<feGaussianBlur stdDeviation="2"/>
<feColorMatrix type="matrix" values="0 0 0 0 0 0 0 0 0 0 0 0 0 0 0 0 0 0 0.25 0"/>
<feBlend mode="normal" in2="BackgroundImageFix" result="effect1_dropShadow"/>
<feBlend mode="normal" in="SourceGraphic" in2="effect1_dropShadow" result="shape"/>
</filter>
</defs>
</svg>
